# xmcd
#
# Track frame offsets:
#	150
#	21783
#	37735
#	54299
#	75444
#	107856
#	131808
#
# Disc length: 2359 seconds
#
# Revision: 0
# Processed by: cddbd v1.5.1PL0 Copyright (c) Steve Scherf et al.
# Submitted via: dBpowerAMP V4.0
#
DISCID=4b093507
DTITLE=Warren Gently - Live Bootleg Recordings
DYEAR=2004
DGENRE=Blues
TTITLE0=Goin' to Brownsville
TTITLE1=Ice Cream Man
TTITLE2=Oreo Cookie Blues
TTITLE3=Death Don't Have No Mercy
TTITLE4=Black Snake
TTITLE5=Summertime
TTITLE6=Prettier Than You
EXTD=Magic Bean Music\nwarrengently@yahoo.com
EXTT0=
EXTT1=
EXTT2=
EXTT3=
EXTT4=
EXTT5=
EXTT6=
PLAYORDER=
